<mxfile host="Electron" modified="2024-04-12T08:59:56.482Z" agent="Mozilla/5.0 (Windows NT 10.0; Win64; x64) AppleWebKit/537.36 (KHTML, like Gecko) draw.io/22.1.11 Chrome/114.0.5735.289 Electron/25.9.8 Safari/537.36" etag="j4aIZqvr6FeNX_ZJfF55" version="22.1.11" type="device">
  <diagram name="Página-1" id="J_BygyVJLnnwWV0JJ9d7">
    <mxGraphModel dx="898" dy="1205" grid="1" gridSize="10" guides="1" tooltips="1" connect="1" arrows="1" fold="1" page="1" pageScale="1" pageWidth="827" pageHeight="1169" math="0" shadow="0">
      <root>
        <mxCell id="0" />
        <mxCell id="1" parent="0" />
        <mxCell id="ByjceSDS08KmxXIdd2V4-9" value="" style="whiteSpace=wrap;html=1;aspect=fixed;fillColor=none;strokeWidth=2;strokeColor=#ff0000;" parent="1" vertex="1">
          <mxGeometry x="215" y="480" width="440" height="440" as="geometry" />
        </mxCell>
        <mxCell id="Jqaz3RoJqof66FQiZuzG-2" value="Cliente" style="shape=umlActor;verticalLabelPosition=bottom;verticalAlign=top;html=1;outlineConnect=0;fillColor=#60a917;fontColor=#ffffff;strokeColor=#2D7600;" parent="1" vertex="1">
          <mxGeometry x="140" y="130" width="30" height="60" as="geometry" />
        </mxCell>
        <mxCell id="Jqaz3RoJqof66FQiZuzG-3" value="" style="rounded=0;whiteSpace=wrap;html=1;fillColor=none;strokeColor=#FFEA29;" parent="1" vertex="1">
          <mxGeometry x="210" y="50" width="380" height="360" as="geometry" />
        </mxCell>
        <mxCell id="Jqaz3RoJqof66FQiZuzG-4" value="App Banca Online" style="text;html=1;align=center;verticalAlign=middle;whiteSpace=wrap;rounded=0;fillColor=#FFEA29;strokeColor=#d6b656;gradientColor=#57420B;fontColor=#000000;" parent="1" vertex="1">
          <mxGeometry x="339" y="30" width="140" height="30" as="geometry" />
        </mxCell>
        <mxCell id="Jqaz3RoJqof66FQiZuzG-5" value="ver saldo" style="ellipse;whiteSpace=wrap;html=1;" parent="1" vertex="1">
          <mxGeometry x="270" y="160" width="75" height="50" as="geometry" />
        </mxCell>
        <mxCell id="Jqaz3RoJqof66FQiZuzG-6" value="" style="endArrow=none;html=1;rounded=0;" parent="1" source="Jqaz3RoJqof66FQiZuzG-5" target="Jqaz3RoJqof66FQiZuzG-2" edge="1">
          <mxGeometry width="50" height="50" relative="1" as="geometry">
            <mxPoint x="130" y="340" as="sourcePoint" />
            <mxPoint x="210" y="160" as="targetPoint" />
          </mxGeometry>
        </mxCell>
        <mxCell id="Jqaz3RoJqof66FQiZuzG-7" value="" style="endArrow=none;html=1;rounded=0;entryX=1;entryY=0.5;entryDx=0;entryDy=0;" parent="1" source="Jqaz3RoJqof66FQiZuzG-8" target="Jqaz3RoJqof66FQiZuzG-5" edge="1">
          <mxGeometry width="50" height="50" relative="1" as="geometry">
            <mxPoint x="794" y="140" as="sourcePoint" />
            <mxPoint x="230" y="150" as="targetPoint" />
          </mxGeometry>
        </mxCell>
        <mxCell id="Jqaz3RoJqof66FQiZuzG-8" value="Banco" style="shape=umlActor;verticalLabelPosition=bottom;verticalAlign=top;html=1;outlineConnect=0;fillColor=#a0522d;fontColor=#ffffff;strokeColor=#6D1F00;" parent="1" vertex="1">
          <mxGeometry x="610" y="150" width="30" height="60" as="geometry" />
        </mxCell>
        <mxCell id="TVIEsyZiBLdk98hM4Ht0-2" value="log in" style="ellipse;whiteSpace=wrap;html=1;" parent="1" vertex="1">
          <mxGeometry x="290" y="90" width="75" height="50" as="geometry" />
        </mxCell>
        <mxCell id="TVIEsyZiBLdk98hM4Ht0-4" value="" style="endArrow=none;html=1;rounded=0;" parent="1" source="TVIEsyZiBLdk98hM4Ht0-2" target="Jqaz3RoJqof66FQiZuzG-2" edge="1">
          <mxGeometry width="50" height="50" relative="1" as="geometry">
            <mxPoint x="820" y="144" as="sourcePoint" />
            <mxPoint x="410" y="260" as="targetPoint" />
          </mxGeometry>
        </mxCell>
        <mxCell id="TVIEsyZiBLdk98hM4Ht0-5" value="verificar contraseña" style="ellipse;whiteSpace=wrap;html=1;" parent="1" vertex="1">
          <mxGeometry x="479" y="60" width="75" height="50" as="geometry" />
        </mxCell>
        <mxCell id="TVIEsyZiBLdk98hM4Ht0-6" value="mostrar error" style="ellipse;whiteSpace=wrap;html=1;" parent="1" vertex="1">
          <mxGeometry x="479" y="120" width="75" height="50" as="geometry" />
        </mxCell>
        <mxCell id="TVIEsyZiBLdk98hM4Ht0-7" value="" style="endArrow=none;dashed=1;html=1;rounded=0;" parent="1" source="TVIEsyZiBLdk98hM4Ht0-9" target="TVIEsyZiBLdk98hM4Ht0-2" edge="1">
          <mxGeometry width="50" height="50" relative="1" as="geometry">
            <mxPoint x="470" y="340" as="sourcePoint" />
            <mxPoint x="520" y="290" as="targetPoint" />
          </mxGeometry>
        </mxCell>
        <mxCell id="TVIEsyZiBLdk98hM4Ht0-8" value="" style="endArrow=none;dashed=1;html=1;rounded=0;" parent="1" source="TVIEsyZiBLdk98hM4Ht0-11" target="TVIEsyZiBLdk98hM4Ht0-2" edge="1">
          <mxGeometry width="50" height="50" relative="1" as="geometry">
            <mxPoint x="490" y="190" as="sourcePoint" />
            <mxPoint x="410" y="194" as="targetPoint" />
          </mxGeometry>
        </mxCell>
        <mxCell id="TVIEsyZiBLdk98hM4Ht0-13" value="hacer pago" style="ellipse;whiteSpace=wrap;html=1;" parent="1" vertex="1">
          <mxGeometry x="290" y="280" width="75" height="50" as="geometry" />
        </mxCell>
        <mxCell id="TVIEsyZiBLdk98hM4Ht0-14" value="" style="endArrow=none;html=1;rounded=0;" parent="1" source="TVIEsyZiBLdk98hM4Ht0-13" target="Jqaz3RoJqof66FQiZuzG-2" edge="1">
          <mxGeometry width="50" height="50" relative="1" as="geometry">
            <mxPoint x="308" y="230" as="sourcePoint" />
            <mxPoint x="210" y="178" as="targetPoint" />
          </mxGeometry>
        </mxCell>
        <mxCell id="TVIEsyZiBLdk98hM4Ht0-15" value="hacer pago aplazado" style="ellipse;whiteSpace=wrap;html=1;" parent="1" vertex="1">
          <mxGeometry x="250" y="350" width="75" height="50" as="geometry" />
        </mxCell>
        <mxCell id="TVIEsyZiBLdk98hM4Ht0-16" value="hacer pago inmediato" style="ellipse;whiteSpace=wrap;html=1;" parent="1" vertex="1">
          <mxGeometry x="339" y="350" width="75" height="50" as="geometry" />
        </mxCell>
        <mxCell id="TVIEsyZiBLdk98hM4Ht0-17" value="" style="endArrow=block;html=1;rounded=0;endFill=0;" parent="1" source="TVIEsyZiBLdk98hM4Ht0-15" target="TVIEsyZiBLdk98hM4Ht0-13" edge="1">
          <mxGeometry width="50" height="50" relative="1" as="geometry">
            <mxPoint x="317" y="294" as="sourcePoint" />
            <mxPoint x="210" y="185" as="targetPoint" />
          </mxGeometry>
        </mxCell>
        <mxCell id="TVIEsyZiBLdk98hM4Ht0-18" value="" style="endArrow=block;html=1;rounded=0;endFill=0;" parent="1" source="TVIEsyZiBLdk98hM4Ht0-16" target="TVIEsyZiBLdk98hM4Ht0-13" edge="1">
          <mxGeometry width="50" height="50" relative="1" as="geometry">
            <mxPoint x="317" y="371" as="sourcePoint" />
            <mxPoint x="328" y="339" as="targetPoint" />
          </mxGeometry>
        </mxCell>
        <mxCell id="TVIEsyZiBLdk98hM4Ht0-19" value="" style="endArrow=none;dashed=1;html=1;rounded=0;" parent="1" source="TVIEsyZiBLdk98hM4Ht0-5" target="TVIEsyZiBLdk98hM4Ht0-9" edge="1">
          <mxGeometry width="50" height="50" relative="1" as="geometry">
            <mxPoint x="451" y="99" as="sourcePoint" />
            <mxPoint x="354" y="111" as="targetPoint" />
          </mxGeometry>
        </mxCell>
        <mxCell id="TVIEsyZiBLdk98hM4Ht0-9" value="&amp;lt;&amp;lt;include&amp;gt;&amp;gt;" style="text;html=1;align=center;verticalAlign=middle;whiteSpace=wrap;rounded=0;rotation=-10;" parent="1" vertex="1">
          <mxGeometry x="400" y="80" width="60" height="30" as="geometry" />
        </mxCell>
        <mxCell id="TVIEsyZiBLdk98hM4Ht0-20" value="" style="endArrow=none;dashed=1;html=1;rounded=0;" parent="1" source="TVIEsyZiBLdk98hM4Ht0-6" target="TVIEsyZiBLdk98hM4Ht0-11" edge="1">
          <mxGeometry width="50" height="50" relative="1" as="geometry">
            <mxPoint x="486" y="191" as="sourcePoint" />
            <mxPoint x="349" y="129" as="targetPoint" />
          </mxGeometry>
        </mxCell>
        <mxCell id="TVIEsyZiBLdk98hM4Ht0-11" value="&amp;lt;&amp;lt;extend&amp;gt;&amp;gt;" style="text;html=1;align=center;verticalAlign=middle;whiteSpace=wrap;rounded=0;rotation=5;" parent="1" vertex="1">
          <mxGeometry x="400" y="120" width="60" height="30" as="geometry" />
        </mxCell>
        <mxCell id="TVIEsyZiBLdk98hM4Ht0-22" value="abrir cuenta" style="ellipse;whiteSpace=wrap;html=1;" parent="1" vertex="1">
          <mxGeometry x="220" y="65" width="60" height="40" as="geometry" />
        </mxCell>
        <mxCell id="TVIEsyZiBLdk98hM4Ht0-24" value="" style="endArrow=none;html=1;rounded=0;" parent="1" source="TVIEsyZiBLdk98hM4Ht0-22" target="TVIEsyZiBLdk98hM4Ht0-25" edge="1">
          <mxGeometry width="50" height="50" relative="1" as="geometry">
            <mxPoint x="324" y="305" as="sourcePoint" />
            <mxPoint x="150" y="70" as="targetPoint" />
          </mxGeometry>
        </mxCell>
        <mxCell id="TVIEsyZiBLdk98hM4Ht0-25" value="Nuevo Cliente" style="shape=umlActor;verticalLabelPosition=bottom;verticalAlign=top;html=1;outlineConnect=0;" parent="1" vertex="1">
          <mxGeometry x="40" y="55" width="30" height="60" as="geometry" />
        </mxCell>
        <mxCell id="TVIEsyZiBLdk98hM4Ht0-27" value="" style="endArrow=block;html=1;rounded=0;endFill=0;" parent="1" source="TVIEsyZiBLdk98hM4Ht0-25" target="Jqaz3RoJqof66FQiZuzG-2" edge="1">
          <mxGeometry width="50" height="50" relative="1" as="geometry">
            <mxPoint x="311" y="362" as="sourcePoint" />
            <mxPoint x="324" y="338" as="targetPoint" />
          </mxGeometry>
        </mxCell>
        <mxCell id="TVIEsyZiBLdk98hM4Ht0-28" value="Cliente Existente" style="shape=umlActor;verticalLabelPosition=bottom;verticalAlign=top;html=1;outlineConnect=0;" parent="1" vertex="1">
          <mxGeometry x="40" y="220" width="30" height="60" as="geometry" />
        </mxCell>
        <mxCell id="TVIEsyZiBLdk98hM4Ht0-31" value="" style="endArrow=block;html=1;rounded=0;endFill=0;" parent="1" source="TVIEsyZiBLdk98hM4Ht0-28" target="Jqaz3RoJqof66FQiZuzG-2" edge="1">
          <mxGeometry width="50" height="50" relative="1" as="geometry">
            <mxPoint x="80" y="106" as="sourcePoint" />
            <mxPoint x="150" y="159" as="targetPoint" />
          </mxGeometry>
        </mxCell>
        <mxCell id="TVIEsyZiBLdk98hM4Ht0-34" value="hacer transferencia" style="ellipse;whiteSpace=wrap;html=1;" parent="1" vertex="1">
          <mxGeometry x="300" y="220" width="75" height="50" as="geometry" />
        </mxCell>
        <mxCell id="TVIEsyZiBLdk98hM4Ht0-35" value="" style="endArrow=none;html=1;rounded=0;exitX=0;exitY=0.5;exitDx=0;exitDy=0;" parent="1" source="TVIEsyZiBLdk98hM4Ht0-34" target="Jqaz3RoJqof66FQiZuzG-2" edge="1">
          <mxGeometry width="50" height="50" relative="1" as="geometry">
            <mxPoint x="620" y="209" as="sourcePoint" />
            <mxPoint x="355" y="195" as="targetPoint" />
          </mxGeometry>
        </mxCell>
        <mxCell id="TVIEsyZiBLdk98hM4Ht0-36" value="elegir metodo de pago" style="ellipse;whiteSpace=wrap;html=1;" parent="1" vertex="1">
          <mxGeometry x="479" y="190" width="75" height="50" as="geometry" />
        </mxCell>
        <mxCell id="TVIEsyZiBLdk98hM4Ht0-37" value="" style="endArrow=none;dashed=1;html=1;rounded=0;" parent="1" source="TVIEsyZiBLdk98hM4Ht0-38" target="TVIEsyZiBLdk98hM4Ht0-34" edge="1">
          <mxGeometry width="50" height="50" relative="1" as="geometry">
            <mxPoint x="489" y="99" as="sourcePoint" />
            <mxPoint x="470" y="102" as="targetPoint" />
          </mxGeometry>
        </mxCell>
        <mxCell id="TVIEsyZiBLdk98hM4Ht0-39" value="" style="endArrow=none;dashed=1;html=1;rounded=0;" parent="1" source="TVIEsyZiBLdk98hM4Ht0-36" target="TVIEsyZiBLdk98hM4Ht0-38" edge="1">
          <mxGeometry width="50" height="50" relative="1" as="geometry">
            <mxPoint x="405" y="232" as="sourcePoint" />
            <mxPoint x="374" y="238" as="targetPoint" />
          </mxGeometry>
        </mxCell>
        <mxCell id="TVIEsyZiBLdk98hM4Ht0-38" value="&amp;lt;&amp;lt;include&amp;gt;&amp;gt;" style="text;html=1;align=center;verticalAlign=middle;whiteSpace=wrap;rounded=0;rotation=-5;" parent="1" vertex="1">
          <mxGeometry x="400" y="210" width="60" height="30" as="geometry" />
        </mxCell>
        <mxCell id="TVIEsyZiBLdk98hM4Ht0-40" value="verificar saldo" style="ellipse;whiteSpace=wrap;html=1;" parent="1" vertex="1">
          <mxGeometry x="470" y="260" width="75" height="50" as="geometry" />
        </mxCell>
        <mxCell id="TVIEsyZiBLdk98hM4Ht0-47" value="" style="endArrow=none;dashed=1;html=1;rounded=0;" parent="1" source="TVIEsyZiBLdk98hM4Ht0-50" target="TVIEsyZiBLdk98hM4Ht0-34" edge="1">
          <mxGeometry width="50" height="50" relative="1" as="geometry">
            <mxPoint x="395.44493693272534" y="266.0834375593612" as="sourcePoint" />
            <mxPoint x="345.0047899050238" y="261.38002049707086" as="targetPoint" />
          </mxGeometry>
        </mxCell>
        <mxCell id="TVIEsyZiBLdk98hM4Ht0-51" value="" style="endArrow=none;dashed=1;html=1;rounded=0;" parent="1" source="TVIEsyZiBLdk98hM4Ht0-40" target="TVIEsyZiBLdk98hM4Ht0-50" edge="1">
          <mxGeometry width="50" height="50" relative="1" as="geometry">
            <mxPoint x="462" y="276" as="sourcePoint" />
            <mxPoint x="373" y="254" as="targetPoint" />
          </mxGeometry>
        </mxCell>
        <mxCell id="TVIEsyZiBLdk98hM4Ht0-50" value="&amp;lt;&amp;lt;include&amp;gt;&amp;gt;" style="text;html=1;align=center;verticalAlign=middle;whiteSpace=wrap;rounded=0;rotation=15;" parent="1" vertex="1">
          <mxGeometry x="400.53" y="251.54" width="48.86" height="24.43" as="geometry" />
        </mxCell>
        <mxCell id="TVIEsyZiBLdk98hM4Ht0-52" value="" style="endArrow=none;html=1;rounded=0;" parent="1" source="TVIEsyZiBLdk98hM4Ht0-40" target="Jqaz3RoJqof66FQiZuzG-8" edge="1">
          <mxGeometry width="50" height="50" relative="1" as="geometry">
            <mxPoint x="314" y="295" as="sourcePoint" />
            <mxPoint x="180" y="183" as="targetPoint" />
          </mxGeometry>
        </mxCell>
        <mxCell id="TVIEsyZiBLdk98hM4Ht0-53" value="" style="endArrow=none;dashed=1;html=1;rounded=0;" parent="1" source="TVIEsyZiBLdk98hM4Ht0-54" edge="1">
          <mxGeometry width="50" height="50" relative="1" as="geometry">
            <mxPoint x="416.98" y="287.55" as="sourcePoint" />
            <mxPoint x="364.9987777909894" y="310.0047401228806" as="targetPoint" />
          </mxGeometry>
        </mxCell>
        <mxCell id="TVIEsyZiBLdk98hM4Ht0-55" value="" style="endArrow=none;dashed=1;html=1;rounded=0;" parent="1" source="TVIEsyZiBLdk98hM4Ht0-40" target="TVIEsyZiBLdk98hM4Ht0-54" edge="1">
          <mxGeometry width="50" height="50" relative="1" as="geometry">
            <mxPoint x="471" y="291" as="sourcePoint" />
            <mxPoint x="364.9987777909894" y="310.0047401228806" as="targetPoint" />
          </mxGeometry>
        </mxCell>
        <mxCell id="TVIEsyZiBLdk98hM4Ht0-54" value="&amp;lt;&amp;lt;include&amp;gt;&amp;gt;" style="text;html=1;align=center;verticalAlign=middle;whiteSpace=wrap;rounded=0;rotation=-10;" parent="1" vertex="1">
          <mxGeometry x="389" y="285.56999999999994" width="48.86" height="24.43" as="geometry" />
        </mxCell>
        <mxCell id="ByjceSDS08KmxXIdd2V4-5" value="Usuario" style="shape=umlActor;verticalLabelPosition=bottom;verticalAlign=top;html=1;outlineConnect=0;" parent="1" vertex="1">
          <mxGeometry x="90" y="540" width="30" height="60" as="geometry" />
        </mxCell>
        <mxCell id="ByjceSDS08KmxXIdd2V4-7" value="&lt;b&gt;&lt;font style=&quot;font-size: 24px;&quot;&gt;EJERCICIO 3&lt;/font&gt;&lt;/b&gt;" style="text;html=1;align=center;verticalAlign=middle;resizable=0;points=[];autosize=1;strokeColor=none;fillColor=none;" parent="1" vertex="1">
          <mxGeometry x="10" y="460" width="170" height="40" as="geometry" />
        </mxCell>
        <mxCell id="ByjceSDS08KmxXIdd2V4-8" value="Manager" style="shape=umlActor;verticalLabelPosition=bottom;verticalAlign=top;html=1;outlineConnect=0;fillColor=#fff700;" parent="1" vertex="1">
          <mxGeometry x="60" y="700" width="30" height="60" as="geometry" />
        </mxCell>
        <mxCell id="ByjceSDS08KmxXIdd2V4-10" value="Sistema de encuentros&amp;nbsp;&lt;br&gt;virtuales" style="text;html=1;align=center;verticalAlign=middle;whiteSpace=wrap;rounded=0;fillColor=#FF0000;strokeColor=#FF0000;fontColor=#ffffff;" parent="1" vertex="1">
          <mxGeometry x="365" y="470" width="140" height="30" as="geometry" />
        </mxCell>
        <mxCell id="ByjceSDS08KmxXIdd2V4-11" value="" style="endArrow=none;html=1;rounded=0;exitX=0;exitY=0.5;exitDx=0;exitDy=0;" parent="1" source="ByjceSDS08KmxXIdd2V4-12" edge="1">
          <mxGeometry width="50" height="50" relative="1" as="geometry">
            <mxPoint x="290" y="570" as="sourcePoint" />
            <mxPoint x="140" y="570" as="targetPoint" />
          </mxGeometry>
        </mxCell>
        <mxCell id="ByjceSDS08KmxXIdd2V4-12" value="conectarse servidor" style="ellipse;whiteSpace=wrap;html=1;" parent="1" vertex="1">
          <mxGeometry x="265" y="540" width="60" height="40" as="geometry" />
        </mxCell>
        <mxCell id="ByjceSDS08KmxXIdd2V4-13" value="entrar&lt;br&gt;encuentro" style="ellipse;whiteSpace=wrap;html=1;" parent="1" vertex="1">
          <mxGeometry x="430" y="530" width="60" height="40" as="geometry" />
        </mxCell>
        <mxCell id="ByjceSDS08KmxXIdd2V4-14" value="salir&lt;br&gt;encuentro" style="ellipse;whiteSpace=wrap;html=1;" parent="1" vertex="1">
          <mxGeometry x="430" y="590" width="60" height="40" as="geometry" />
        </mxCell>
        <mxCell id="ByjceSDS08KmxXIdd2V4-15" value="" style="endArrow=none;html=1;rounded=0;exitX=0;exitY=0;exitDx=0;exitDy=0;entryX=1;entryY=1;entryDx=0;entryDy=0;" parent="1" source="ByjceSDS08KmxXIdd2V4-14" target="ByjceSDS08KmxXIdd2V4-12" edge="1">
          <mxGeometry width="50" height="50" relative="1" as="geometry">
            <mxPoint x="250" y="620" as="sourcePoint" />
            <mxPoint x="150" y="580" as="targetPoint" />
          </mxGeometry>
        </mxCell>
        <mxCell id="ByjceSDS08KmxXIdd2V4-16" value="" style="endArrow=none;html=1;rounded=0;exitX=0;exitY=0.5;exitDx=0;exitDy=0;entryX=1;entryY=0.5;entryDx=0;entryDy=0;" parent="1" source="ByjceSDS08KmxXIdd2V4-13" target="ByjceSDS08KmxXIdd2V4-12" edge="1">
          <mxGeometry width="50" height="50" relative="1" as="geometry">
            <mxPoint x="373" y="696" as="sourcePoint" />
            <mxPoint x="301" y="634" as="targetPoint" />
          </mxGeometry>
        </mxCell>
        <mxCell id="ByjceSDS08KmxXIdd2V4-17" value="planificar&lt;br&gt;encuentro" style="ellipse;whiteSpace=wrap;html=1;" parent="1" vertex="1">
          <mxGeometry x="265" y="700" width="60" height="40" as="geometry" />
        </mxCell>
        <mxCell id="ByjceSDS08KmxXIdd2V4-18" value="consultar&lt;br&gt;estado sistema" style="ellipse;whiteSpace=wrap;html=1;" parent="1" vertex="1">
          <mxGeometry x="240" y="620" width="60" height="40" as="geometry" />
        </mxCell>
        <mxCell id="ByjceSDS08KmxXIdd2V4-19" value="Moderador" style="shape=umlActor;verticalLabelPosition=bottom;verticalAlign=top;html=1;outlineConnect=0;fillColor=#FF0000;" parent="1" vertex="1">
          <mxGeometry x="120" y="850" width="30" height="60" as="geometry" />
        </mxCell>
        <mxCell id="ByjceSDS08KmxXIdd2V4-20" value="asignar&lt;br&gt;turno&lt;br&gt;palabra" style="ellipse;whiteSpace=wrap;html=1;" parent="1" vertex="1">
          <mxGeometry x="419" y="790" width="60" height="40" as="geometry" />
        </mxCell>
        <mxCell id="ByjceSDS08KmxXIdd2V4-21" value="finalizar&lt;br&gt;encuentro" style="ellipse;whiteSpace=wrap;html=1;" parent="1" vertex="1">
          <mxGeometry x="530" y="850" width="60" height="40" as="geometry" />
        </mxCell>
        <mxCell id="ByjceSDS08KmxXIdd2V4-22" value="" style="endArrow=none;html=1;rounded=0;exitX=0;exitY=0.5;exitDx=0;exitDy=0;entryX=0;entryY=0.5;entryDx=0;entryDy=0;" parent="1" target="ByjceSDS08KmxXIdd2V4-18" edge="1">
          <mxGeometry width="50" height="50" relative="1" as="geometry">
            <mxPoint x="150" y="620" as="sourcePoint" />
            <mxPoint x="25" y="630" as="targetPoint" />
          </mxGeometry>
        </mxCell>
        <mxCell id="ByjceSDS08KmxXIdd2V4-23" value="" style="endArrow=none;html=1;rounded=0;entryX=0;entryY=0.5;entryDx=0;entryDy=0;" parent="1" target="ByjceSDS08KmxXIdd2V4-17" edge="1">
          <mxGeometry width="50" height="50" relative="1" as="geometry">
            <mxPoint x="120" y="740" as="sourcePoint" />
            <mxPoint x="250" y="650" as="targetPoint" />
          </mxGeometry>
        </mxCell>
        <mxCell id="ByjceSDS08KmxXIdd2V4-24" value="designar&lt;br&gt;moderador" style="ellipse;whiteSpace=wrap;html=1;" parent="1" vertex="1">
          <mxGeometry x="305" y="760" width="60" height="40" as="geometry" />
        </mxCell>
        <mxCell id="ByjceSDS08KmxXIdd2V4-25" value="" style="endArrow=none;html=1;rounded=0;entryX=0;entryY=0.5;entryDx=0;entryDy=0;" parent="1" target="ByjceSDS08KmxXIdd2V4-24" edge="1">
          <mxGeometry width="50" height="50" relative="1" as="geometry">
            <mxPoint x="130" y="770" as="sourcePoint" />
            <mxPoint x="275" y="730" as="targetPoint" />
          </mxGeometry>
        </mxCell>
        <mxCell id="ByjceSDS08KmxXIdd2V4-27" value="" style="endArrow=none;html=1;rounded=0;entryX=0;entryY=1;entryDx=0;entryDy=0;" parent="1" target="ByjceSDS08KmxXIdd2V4-20" edge="1">
          <mxGeometry width="50" height="50" relative="1" as="geometry">
            <mxPoint x="180" y="880" as="sourcePoint" />
            <mxPoint x="315" y="790" as="targetPoint" />
          </mxGeometry>
        </mxCell>
        <mxCell id="ByjceSDS08KmxXIdd2V4-28" value="" style="endArrow=none;html=1;rounded=0;entryX=0;entryY=0.5;entryDx=0;entryDy=0;" parent="1" target="ByjceSDS08KmxXIdd2V4-21" edge="1">
          <mxGeometry width="50" height="50" relative="1" as="geometry">
            <mxPoint x="190" y="890" as="sourcePoint" />
            <mxPoint x="438" y="834" as="targetPoint" />
          </mxGeometry>
        </mxCell>
        <mxCell id="B3ShsFw4T6BWGGW_iQKH-2" value="&lt;b&gt;&lt;font style=&quot;font-size: 24px;&quot;&gt;EJERCICIO 5&lt;/font&gt;&lt;/b&gt;" style="text;html=1;align=center;verticalAlign=middle;resizable=0;points=[];autosize=1;strokeColor=none;fillColor=none;" vertex="1" parent="1">
          <mxGeometry x="20" y="980" width="170" height="40" as="geometry" />
        </mxCell>
        <mxCell id="B3ShsFw4T6BWGGW_iQKH-3" value="" style="whiteSpace=wrap;html=1;aspect=fixed;fillColor=none;strokeWidth=2;strokeColor=#005700;fontColor=#ffffff;" vertex="1" parent="1">
          <mxGeometry x="215" y="1050" width="690" height="690" as="geometry" />
        </mxCell>
        <mxCell id="B3ShsFw4T6BWGGW_iQKH-4" value="Biblioteca" style="text;html=1;align=center;verticalAlign=middle;whiteSpace=wrap;rounded=0;fillColor=#008a00;strokeColor=#005700;fontColor=#ffffff;" vertex="1" parent="1">
          <mxGeometry x="479" y="1040" width="140" height="30" as="geometry" />
        </mxCell>
        <mxCell id="B3ShsFw4T6BWGGW_iQKH-41" style="edgeStyle=none;shape=connector;rounded=0;orthogonalLoop=1;jettySize=auto;html=1;exitX=0.5;exitY=0;exitDx=0;exitDy=0;entryX=0;entryY=1;entryDx=0;entryDy=0;labelBackgroundColor=default;strokeColor=default;align=center;verticalAlign=middle;fontFamily=Helvetica;fontSize=11;fontColor=default;endArrow=none;endFill=0;" edge="1" parent="1" source="B3ShsFw4T6BWGGW_iQKH-5" target="B3ShsFw4T6BWGGW_iQKH-11">
          <mxGeometry relative="1" as="geometry" />
        </mxCell>
        <mxCell id="B3ShsFw4T6BWGGW_iQKH-42" style="edgeStyle=none;shape=connector;rounded=0;orthogonalLoop=1;jettySize=auto;html=1;exitX=1;exitY=0;exitDx=0;exitDy=0;entryX=0;entryY=0.5;entryDx=0;entryDy=0;labelBackgroundColor=default;strokeColor=default;align=center;verticalAlign=middle;fontFamily=Helvetica;fontSize=11;fontColor=default;endArrow=none;endFill=0;" edge="1" parent="1" source="B3ShsFw4T6BWGGW_iQKH-5" target="B3ShsFw4T6BWGGW_iQKH-35">
          <mxGeometry relative="1" as="geometry" />
        </mxCell>
        <mxCell id="B3ShsFw4T6BWGGW_iQKH-43" style="edgeStyle=none;shape=connector;rounded=0;orthogonalLoop=1;jettySize=auto;html=1;exitX=1;exitY=0.5;exitDx=0;exitDy=0;entryX=0;entryY=0.5;entryDx=0;entryDy=0;labelBackgroundColor=default;strokeColor=default;align=center;verticalAlign=middle;fontFamily=Helvetica;fontSize=11;fontColor=default;endArrow=none;endFill=0;" edge="1" parent="1" source="B3ShsFw4T6BWGGW_iQKH-5" target="B3ShsFw4T6BWGGW_iQKH-36">
          <mxGeometry relative="1" as="geometry" />
        </mxCell>
        <mxCell id="B3ShsFw4T6BWGGW_iQKH-46" style="edgeStyle=none;shape=connector;rounded=0;orthogonalLoop=1;jettySize=auto;html=1;exitX=0.5;exitY=1;exitDx=0;exitDy=0;entryX=0;entryY=0.5;entryDx=0;entryDy=0;labelBackgroundColor=default;strokeColor=default;align=center;verticalAlign=middle;fontFamily=Helvetica;fontSize=11;fontColor=default;endArrow=none;endFill=0;" edge="1" parent="1" source="B3ShsFw4T6BWGGW_iQKH-5" target="B3ShsFw4T6BWGGW_iQKH-38">
          <mxGeometry relative="1" as="geometry" />
        </mxCell>
        <mxCell id="B3ShsFw4T6BWGGW_iQKH-50" style="edgeStyle=none;shape=connector;rounded=0;orthogonalLoop=1;jettySize=auto;html=1;exitX=0.5;exitY=1;exitDx=0;exitDy=0;entryX=0;entryY=0.5;entryDx=0;entryDy=0;labelBackgroundColor=default;strokeColor=default;align=center;verticalAlign=middle;fontFamily=Helvetica;fontSize=11;fontColor=default;endArrow=none;endFill=0;" edge="1" parent="1" source="B3ShsFw4T6BWGGW_iQKH-5" target="B3ShsFw4T6BWGGW_iQKH-47">
          <mxGeometry relative="1" as="geometry" />
        </mxCell>
        <mxCell id="B3ShsFw4T6BWGGW_iQKH-5" value="entrar sistema" style="ellipse;whiteSpace=wrap;html=1;" vertex="1" parent="1">
          <mxGeometry x="245" y="1370" width="60" height="40" as="geometry" />
        </mxCell>
        <mxCell id="B3ShsFw4T6BWGGW_iQKH-6" value="introducir&lt;br&gt;usuario y cont." style="ellipse;whiteSpace=wrap;html=1;" vertex="1" parent="1">
          <mxGeometry x="240" y="1190" width="60" height="40" as="geometry" />
        </mxCell>
        <mxCell id="B3ShsFw4T6BWGGW_iQKH-7" value="recibir&lt;br&gt;mens. error" style="ellipse;whiteSpace=wrap;html=1;" vertex="1" parent="1">
          <mxGeometry x="230" y="1480" width="60" height="40" as="geometry" />
        </mxCell>
        <mxCell id="B3ShsFw4T6BWGGW_iQKH-8" value="" style="endArrow=classic;html=1;rounded=0;exitX=0.5;exitY=0;exitDx=0;exitDy=0;entryX=0;entryY=1;entryDx=0;entryDy=0;dashed=1;endFill=1;" edge="1" parent="1" source="B3ShsFw4T6BWGGW_iQKH-7" target="B3ShsFw4T6BWGGW_iQKH-5">
          <mxGeometry width="50" height="50" relative="1" as="geometry">
            <mxPoint x="250" y="1190" as="sourcePoint" />
            <mxPoint x="150" y="1150" as="targetPoint" />
          </mxGeometry>
        </mxCell>
        <mxCell id="B3ShsFw4T6BWGGW_iQKH-33" value="&amp;lt;&amp;lt;extend&amp;gt;&amp;gt;" style="edgeLabel;html=1;align=center;verticalAlign=middle;resizable=0;points=[];fontSize=11;fontFamily=Helvetica;fontColor=default;" vertex="1" connectable="0" parent="B3ShsFw4T6BWGGW_iQKH-8">
          <mxGeometry x="0.0656" y="2" relative="1" as="geometry">
            <mxPoint as="offset" />
          </mxGeometry>
        </mxCell>
        <mxCell id="B3ShsFw4T6BWGGW_iQKH-9" value="" style="endArrow=none;html=1;rounded=0;exitX=0.5;exitY=1;exitDx=0;exitDy=0;entryX=0;entryY=0;entryDx=0;entryDy=0;dashed=1;dashPattern=8 8;endFill=0;startArrow=classic;startFill=1;" edge="1" parent="1" source="B3ShsFw4T6BWGGW_iQKH-6" target="B3ShsFw4T6BWGGW_iQKH-5">
          <mxGeometry width="50" height="50" relative="1" as="geometry">
            <mxPoint x="373" y="1266" as="sourcePoint" />
            <mxPoint x="301" y="1204" as="targetPoint" />
          </mxGeometry>
        </mxCell>
        <mxCell id="B3ShsFw4T6BWGGW_iQKH-31" value="&amp;lt;&amp;lt;include&amp;gt;&amp;gt;" style="edgeLabel;html=1;align=center;verticalAlign=middle;resizable=0;points=[];fontSize=11;fontFamily=Helvetica;fontColor=default;" vertex="1" connectable="0" parent="B3ShsFw4T6BWGGW_iQKH-9">
          <mxGeometry x="0.0015" relative="1" as="geometry">
            <mxPoint as="offset" />
          </mxGeometry>
        </mxCell>
        <mxCell id="B3ShsFw4T6BWGGW_iQKH-10" value="añadir&lt;br&gt;libro" style="ellipse;whiteSpace=wrap;html=1;" vertex="1" parent="1">
          <mxGeometry x="325" y="1550" width="60" height="40" as="geometry" />
        </mxCell>
        <mxCell id="B3ShsFw4T6BWGGW_iQKH-11" value="reservar&lt;br&gt;libro" style="ellipse;whiteSpace=wrap;html=1;" vertex="1" parent="1">
          <mxGeometry x="340.53" y="1210" width="60" height="40" as="geometry" />
        </mxCell>
        <mxCell id="B3ShsFw4T6BWGGW_iQKH-12" value="editar&lt;br&gt;libro" style="ellipse;whiteSpace=wrap;html=1;" vertex="1" parent="1">
          <mxGeometry x="354" y="1680" width="60" height="40" as="geometry" />
        </mxCell>
        <mxCell id="B3ShsFw4T6BWGGW_iQKH-13" value="mandar&lt;br&gt;notif." style="ellipse;whiteSpace=wrap;html=1;" vertex="1" parent="1">
          <mxGeometry x="820" y="1350" width="60" height="40" as="geometry" />
        </mxCell>
        <mxCell id="B3ShsFw4T6BWGGW_iQKH-14" value="borrar&lt;br&gt;libro" style="ellipse;whiteSpace=wrap;html=1;" vertex="1" parent="1">
          <mxGeometry x="375" y="1610" width="60" height="40" as="geometry" />
        </mxCell>
        <mxCell id="B3ShsFw4T6BWGGW_iQKH-25" style="rounded=0;orthogonalLoop=1;jettySize=auto;html=1;" edge="1" parent="1" source="B3ShsFw4T6BWGGW_iQKH-15" target="B3ShsFw4T6BWGGW_iQKH-22">
          <mxGeometry relative="1" as="geometry" />
        </mxCell>
        <mxCell id="B3ShsFw4T6BWGGW_iQKH-34" style="edgeStyle=none;shape=connector;rounded=0;orthogonalLoop=1;jettySize=auto;html=1;entryX=0;entryY=0.5;entryDx=0;entryDy=0;labelBackgroundColor=default;strokeColor=default;align=center;verticalAlign=middle;fontFamily=Helvetica;fontSize=11;fontColor=default;endArrow=none;endFill=0;" edge="1" parent="1" target="B3ShsFw4T6BWGGW_iQKH-5">
          <mxGeometry relative="1" as="geometry">
            <mxPoint x="100" y="1410" as="sourcePoint" />
            <Array as="points" />
          </mxGeometry>
        </mxCell>
        <mxCell id="B3ShsFw4T6BWGGW_iQKH-15" value="Usuario" style="shape=umlActor;verticalLabelPosition=bottom;verticalAlign=top;html=1;outlineConnect=0;" vertex="1" parent="1">
          <mxGeometry x="40" y="1380" width="30" height="60" as="geometry" />
        </mxCell>
        <mxCell id="B3ShsFw4T6BWGGW_iQKH-16" value="Bibliotecario" style="shape=umlActor;verticalLabelPosition=bottom;verticalAlign=top;html=1;outlineConnect=0;fillColor=#0050ef;fontColor=#ffffff;strokeColor=#001DBC;" vertex="1" parent="1">
          <mxGeometry x="110" y="1660" width="30" height="60" as="geometry" />
        </mxCell>
        <mxCell id="B3ShsFw4T6BWGGW_iQKH-17" value="Base de datos" style="shape=umlActor;verticalLabelPosition=bottom;verticalAlign=top;html=1;outlineConnect=0;fillColor=#d80073;fontColor=#ffffff;strokeColor=#A50040;" vertex="1" parent="1">
          <mxGeometry x="1060" y="1420" width="30" height="60" as="geometry" />
        </mxCell>
        <mxCell id="B3ShsFw4T6BWGGW_iQKH-28" style="edgeStyle=none;shape=connector;rounded=0;orthogonalLoop=1;jettySize=auto;html=1;exitX=0.5;exitY=0;exitDx=0;exitDy=0;entryX=0;entryY=0.5;entryDx=0;entryDy=0;labelBackgroundColor=default;strokeColor=default;align=center;verticalAlign=middle;fontFamily=Helvetica;fontSize=11;fontColor=default;endArrow=none;endFill=0;" edge="1" parent="1" source="B3ShsFw4T6BWGGW_iQKH-18" target="B3ShsFw4T6BWGGW_iQKH-10">
          <mxGeometry relative="1" as="geometry" />
        </mxCell>
        <mxCell id="B3ShsFw4T6BWGGW_iQKH-29" style="edgeStyle=none;shape=connector;rounded=0;orthogonalLoop=1;jettySize=auto;html=1;exitX=1;exitY=0.5;exitDx=0;exitDy=0;entryX=0;entryY=0.5;entryDx=0;entryDy=0;labelBackgroundColor=default;strokeColor=default;align=center;verticalAlign=middle;fontFamily=Helvetica;fontSize=11;fontColor=default;endArrow=none;endFill=0;" edge="1" parent="1" source="B3ShsFw4T6BWGGW_iQKH-18" target="B3ShsFw4T6BWGGW_iQKH-14">
          <mxGeometry relative="1" as="geometry" />
        </mxCell>
        <mxCell id="B3ShsFw4T6BWGGW_iQKH-30" style="edgeStyle=none;shape=connector;rounded=0;orthogonalLoop=1;jettySize=auto;html=1;exitX=0.5;exitY=1;exitDx=0;exitDy=0;entryX=0;entryY=0.5;entryDx=0;entryDy=0;labelBackgroundColor=default;strokeColor=default;align=center;verticalAlign=middle;fontFamily=Helvetica;fontSize=11;fontColor=default;endArrow=none;endFill=0;" edge="1" parent="1" source="B3ShsFw4T6BWGGW_iQKH-18" target="B3ShsFw4T6BWGGW_iQKH-12">
          <mxGeometry relative="1" as="geometry" />
        </mxCell>
        <mxCell id="B3ShsFw4T6BWGGW_iQKH-18" value="actualizar&lt;br&gt;catálogo" style="ellipse;whiteSpace=wrap;html=1;" vertex="1" parent="1">
          <mxGeometry x="250" y="1660" width="60" height="40" as="geometry" />
        </mxCell>
        <mxCell id="B3ShsFw4T6BWGGW_iQKH-19" value="enviar&lt;br&gt;mensaje" style="ellipse;whiteSpace=wrap;html=1;" vertex="1" parent="1">
          <mxGeometry x="820" y="1460" width="60" height="40" as="geometry" />
        </mxCell>
        <mxCell id="B3ShsFw4T6BWGGW_iQKH-21" value="Estudiante" style="shape=umlActor;verticalLabelPosition=bottom;verticalAlign=top;html=1;outlineConnect=0;fillColor=#60a917;fontColor=#ffffff;strokeColor=#2D7600;" vertex="1" parent="1">
          <mxGeometry x="130" y="1510" width="30" height="60" as="geometry" />
        </mxCell>
        <mxCell id="B3ShsFw4T6BWGGW_iQKH-22" value="Profesorado" style="shape=umlActor;verticalLabelPosition=bottom;verticalAlign=top;html=1;outlineConnect=0;fillColor=#a20025;fontColor=#ffffff;strokeColor=#6F0000;" vertex="1" parent="1">
          <mxGeometry x="30" y="1570" width="30" height="60" as="geometry" />
        </mxCell>
        <mxCell id="B3ShsFw4T6BWGGW_iQKH-24" style="rounded=0;orthogonalLoop=1;jettySize=auto;html=1;entryX=0;entryY=0.3333333333333333;entryDx=0;entryDy=0;entryPerimeter=0;" edge="1" parent="1" source="B3ShsFw4T6BWGGW_iQKH-15" target="B3ShsFw4T6BWGGW_iQKH-21">
          <mxGeometry relative="1" as="geometry" />
        </mxCell>
        <mxCell id="B3ShsFw4T6BWGGW_iQKH-26" style="rounded=0;orthogonalLoop=1;jettySize=auto;html=1;entryX=0;entryY=0.5;entryDx=0;entryDy=0;endArrow=none;endFill=0;" edge="1" parent="1" target="B3ShsFw4T6BWGGW_iQKH-18">
          <mxGeometry relative="1" as="geometry">
            <mxPoint x="160" y="1690" as="sourcePoint" />
            <mxPoint x="220" y="1464" as="targetPoint" />
          </mxGeometry>
        </mxCell>
        <mxCell id="B3ShsFw4T6BWGGW_iQKH-35" value="iniciar&lt;br&gt;préstamo" style="ellipse;whiteSpace=wrap;html=1;" vertex="1" parent="1">
          <mxGeometry x="414" y="1250" width="60" height="40" as="geometry" />
        </mxCell>
        <mxCell id="B3ShsFw4T6BWGGW_iQKH-36" value="renovar&lt;br&gt;préstamo" style="ellipse;whiteSpace=wrap;html=1;" vertex="1" parent="1">
          <mxGeometry x="449.39" y="1300" width="60" height="40" as="geometry" />
        </mxCell>
        <mxCell id="B3ShsFw4T6BWGGW_iQKH-44" style="edgeStyle=none;shape=connector;rounded=0;orthogonalLoop=1;jettySize=auto;html=1;exitX=0;exitY=0.5;exitDx=0;exitDy=0;entryX=1;entryY=1;entryDx=0;entryDy=0;labelBackgroundColor=default;strokeColor=default;align=center;verticalAlign=middle;fontFamily=Helvetica;fontSize=11;fontColor=default;endArrow=none;endFill=0;" edge="1" parent="1" source="B3ShsFw4T6BWGGW_iQKH-37" target="B3ShsFw4T6BWGGW_iQKH-5">
          <mxGeometry relative="1" as="geometry" />
        </mxCell>
        <mxCell id="B3ShsFw4T6BWGGW_iQKH-37" value="pagar&lt;br&gt;multa" style="ellipse;whiteSpace=wrap;html=1;" vertex="1" parent="1">
          <mxGeometry x="490" y="1350" width="60" height="40" as="geometry" />
        </mxCell>
        <mxCell id="B3ShsFw4T6BWGGW_iQKH-45" style="edgeStyle=none;shape=connector;rounded=0;orthogonalLoop=1;jettySize=auto;html=1;exitX=1;exitY=0.5;exitDx=0;exitDy=0;entryX=0;entryY=0.5;entryDx=0;entryDy=0;labelBackgroundColor=default;strokeColor=default;align=center;verticalAlign=middle;fontFamily=Helvetica;fontSize=11;fontColor=default;endArrow=none;endFill=0;" edge="1" parent="1" source="B3ShsFw4T6BWGGW_iQKH-38" target="B3ShsFw4T6BWGGW_iQKH-39">
          <mxGeometry relative="1" as="geometry" />
        </mxCell>
        <mxCell id="B3ShsFw4T6BWGGW_iQKH-38" value="dar&lt;br&gt;feedback" style="ellipse;whiteSpace=wrap;html=1;" vertex="1" parent="1">
          <mxGeometry x="494" y="1420" width="60" height="40" as="geometry" />
        </mxCell>
        <mxCell id="B3ShsFw4T6BWGGW_iQKH-39" value="generar&lt;br&gt;form&lt;br&gt;feedback" style="ellipse;whiteSpace=wrap;html=1;" vertex="1" parent="1">
          <mxGeometry x="640" y="1350" width="100" height="70" as="geometry" />
        </mxCell>
        <mxCell id="B3ShsFw4T6BWGGW_iQKH-51" style="edgeStyle=none;shape=connector;rounded=0;orthogonalLoop=1;jettySize=auto;html=1;exitX=1;exitY=0.5;exitDx=0;exitDy=0;entryX=0;entryY=0.5;entryDx=0;entryDy=0;labelBackgroundColor=default;strokeColor=default;align=center;verticalAlign=middle;fontFamily=Helvetica;fontSize=11;fontColor=default;endArrow=none;endFill=0;" edge="1" parent="1" source="B3ShsFw4T6BWGGW_iQKH-47" target="B3ShsFw4T6BWGGW_iQKH-48">
          <mxGeometry relative="1" as="geometry" />
        </mxCell>
        <mxCell id="B3ShsFw4T6BWGGW_iQKH-47" value="registrarse" style="ellipse;whiteSpace=wrap;html=1;" vertex="1" parent="1">
          <mxGeometry x="389.39" y="1480" width="60" height="40" as="geometry" />
        </mxCell>
        <mxCell id="B3ShsFw4T6BWGGW_iQKH-52" style="edgeStyle=none;shape=connector;rounded=0;orthogonalLoop=1;jettySize=auto;html=1;exitX=1;exitY=0.5;exitDx=0;exitDy=0;entryX=0;entryY=0;entryDx=0;entryDy=0;labelBackgroundColor=default;strokeColor=default;align=center;verticalAlign=middle;fontFamily=Helvetica;fontSize=11;fontColor=default;endArrow=none;endFill=0;" edge="1" parent="1" source="B3ShsFw4T6BWGGW_iQKH-48" target="B3ShsFw4T6BWGGW_iQKH-49">
          <mxGeometry relative="1" as="geometry" />
        </mxCell>
        <mxCell id="B3ShsFw4T6BWGGW_iQKH-48" value="generar&lt;br&gt;from.&lt;br&gt;registro" style="ellipse;whiteSpace=wrap;html=1;" vertex="1" parent="1">
          <mxGeometry x="509.39" y="1500" width="100" height="70" as="geometry" />
        </mxCell>
        <mxCell id="B3ShsFw4T6BWGGW_iQKH-49" value="otorgar&lt;br&gt;tarjeta" style="ellipse;whiteSpace=wrap;html=1;" vertex="1" parent="1">
          <mxGeometry x="680" y="1550" width="100" height="70" as="geometry" />
        </mxCell>
      </root>
    </mxGraphModel>
  </diagram>
</mxfile>
